<svg xmlns="http://www.w3.org/2000/svg" viewBox="0 0 1600 700" role="img" aria-label="VUEWE default profile background">
  <defs>
    <linearGradient id="bg" x1="0" y1="0" x2="1" y2="1">
      <stop offset="0" stop-color="#f8fbfc"/>
      <stop offset="0.5" stop-color="#eaf1f5"/>
      <stop offset="1" stop-color="#dce8ee"/>
    </linearGradient>
    <radialGradient id="g1" cx="0.16" cy="0.18" r="0.7">
      <stop offset="0" stop-color="#24e86e" stop-opacity="0.26"/>
      <stop offset="0.42" stop-color="#13dbe4" stop-opacity="0.12"/>
      <stop offset="1" stop-color="#13dbe4" stop-opacity="0"/>
    </radialGradient>
    <radialGradient id="g2" cx="0.88" cy="0.2" r="0.72">
      <stop offset="0" stop-color="#2468f2" stop-opacity="0.22"/>
      <stop offset="0.5" stop-color="#13dbe4" stop-opacity="0.08"/>
      <stop offset="1" stop-color="#2468f2" stop-opacity="0"/>
    </radialGradient>
    <linearGradient id="iris" x1="0" y1="0" x2="1" y2="1">
      <stop offset="0" stop-color="#24e86e"/>
      <stop offset="0.5" stop-color="#13dbe4"/>
      <stop offset="1" stop-color="#2468f2"/>
    </linearGradient>
    <filter id="blur"><feGaussianBlur stdDeviation="34"/></filter>
    <filter id="shadow"><feDropShadow dx="0" dy="18" stdDeviation="26" flood-color="#173143" flood-opacity="0.13"/></filter>
  </defs>
  <rect width="1600" height="700" fill="url(#bg)"/>
  <rect width="1600" height="700" fill="url(#g1)"/>
  <rect width="1600" height="700" fill="url(#g2)"/>
  <g opacity="0.38" filter="url(#blur)">
    <circle cx="220" cy="110" r="120" fill="#24e86e"/>
    <circle cx="1340" cy="125" r="145" fill="#2468f2"/>
    <circle cx="920" cy="590" r="120" fill="#13dbe4"/>
  </g>
  <g opacity="0.22" fill="none" stroke="#547083">
    <path d="M0 492 C290 392 502 602 782 470 S1305 376 1600 500" stroke-width="2"/>
    <path d="M0 535 C316 430 512 640 810 505 S1335 410 1600 542" stroke-width="1"/>
    <path d="M100 124 C355 70 520 180 740 116 S1110 46 1505 132" stroke-width="1"/>
  </g>
  <g transform="translate(800 315)" filter="url(#shadow)">
    <path d="M-178 0 C-126-78-57-112 0-112 C57-112 126-78 178 0 C126 78 57 112 0 112 C-57 112-126 78-178 0Z" fill="#ffffff" fill-opacity="0.84" stroke="#aec0cb" stroke-width="3"/>
    <ellipse cx="0" cy="0" rx="76" ry="76" fill="url(#iris)"/>
    <circle cx="0" cy="0" r="38" fill="#07131b"/>
    <circle cx="-12" cy="-14" r="11" fill="#ffffff" fill-opacity="0.92"/>
  </g>
  <text x="800" y="505" text-anchor="middle" fill="#0b1720" font-family="Arial, Helvetica, sans-serif" font-size="58" font-weight="800" letter-spacing="6">VUEWE</text>
  <text x="800" y="552" text-anchor="middle" fill="#617481" font-family="Arial, Helvetica, sans-serif" font-size="19" font-weight="700" letter-spacing="5">YOUR VIEW • YOUR SPACE</text>
</svg>