<svg xmlns="http://www.w3.org/2000/svg" viewBox="0 0 512 512" role="img" aria-label="VUEWE app icon">
  <defs>
    <linearGradient id="frame" x1="52" y1="24" x2="454" y2="486" gradientUnits="userSpaceOnUse">
      <stop offset="0" stop-color="#74ffd7"/>
      <stop offset=".42" stop-color="#29dfc0"/>
      <stop offset=".72" stop-color="#45a8ff"/>
      <stop offset="1" stop-color="#7568ff"/>
    </linearGradient>
    <linearGradient id="shell" x1="110" y1="76" x2="412" y2="446" gradientUnits="userSpaceOnUse">
      <stop offset="0" stop-color="#15242a"/>
      <stop offset=".48" stop-color="#071016"/>
      <stop offset="1" stop-color="#020507"/>
    </linearGradient>
    <radialGradient id="iris" cx="34%" cy="28%" r="76%">
      <stop offset="0" stop-color="#e8fff9"/>
      <stop offset=".18" stop-color="#77ffdb"/>
      <stop offset=".5" stop-color="#20dfbd"/>
      <stop offset=".78" stop-color="#3ba8ff"/>
      <stop offset="1" stop-color="#706bff"/>
    </radialGradient>
    <linearGradient id="eyeRim" x1="104" y1="178" x2="408" y2="334" gradientUnits="userSpaceOnUse">
      <stop offset="0" stop-color="#ffffff"/>
      <stop offset=".5" stop-color="#c7fff1"/>
      <stop offset="1" stop-color="#d9e1ff"/>
    </linearGradient>
    <linearGradient id="glass" x1="104" y1="46" x2="332" y2="286" gradientUnits="userSpaceOnUse">
      <stop offset="0" stop-color="#ffffff" stop-opacity=".28"/>
      <stop offset=".42" stop-color="#ffffff" stop-opacity=".06"/>
      <stop offset="1" stop-color="#ffffff" stop-opacity="0"/>
    </linearGradient>
    <filter id="shadow" x="-20%" y="-20%" width="140%" height="150%">
      <feDropShadow dx="0" dy="18" stdDeviation="20" flood-color="#000000" flood-opacity=".48"/>
    </filter>
    <filter id="eyeGlow" x="-40%" y="-40%" width="180%" height="180%">
      <feDropShadow dx="0" dy="0" stdDeviation="11" flood-color="#38ecc9" flood-opacity=".26"/>
    </filter>
  </defs>

  <rect x="18" y="18" width="476" height="476" rx="126" fill="url(#frame)" filter="url(#shadow)"/>
  <rect x="30" y="30" width="452" height="452" rx="116" fill="url(#shell)"/>
  <rect x="43" y="43" width="426" height="426" rx="105" fill="none" stroke="rgba(255,255,255,.10)" stroke-width="2"/>

  <ellipse cx="256" cy="276" rx="171" ry="151" fill="#0a181c" opacity=".72"/>
  <path d="M86 257c42-78 102-119 170-119s128 41 170 119c-42 78-102 119-170 119S128 335 86 257Z" fill="url(#eyeRim)" filter="url(#eyeGlow)"/>
  <path d="M108 257c37-60 89-91 148-91s111 31 148 91c-37 60-89 91-148 91s-111-31-148-91Z" fill="#071014"/>

  <circle cx="256" cy="257" r="91" fill="url(#iris)"/>
  <circle cx="256" cy="257" r="54" fill="#04080c"/>
  <circle cx="256" cy="257" r="22" fill="#000000"/>
  <circle cx="226" cy="221" r="17" fill="#ffffff" opacity=".94"/>
  <circle cx="286" cy="285" r="7" fill="#ffffff" opacity=".42"/>

  <path d="M112 74c48-28 102-40 162-34 51 5 99 23 143 54-93-21-195-2-305 54Z" fill="url(#glass)"/>
  <path d="M156 407c33 16 66 24 100 24s67-8 100-24" fill="none" stroke="url(#frame)" stroke-width="8" stroke-linecap="round" opacity=".66"/>
  <circle cx="405" cy="104" r="10" fill="#ffffff" opacity=".22"/>
</svg>
